<svg width="25" height="24" viewBox="0 0 25 24" fill="none" xmlns="http://www.w3.org/2000/svg">
<path d="M9.5769 11H15.5769M9.5769 7H13.5769M9.5769 15H15.5769M5.5769 21V7.8C5.5769 6.11984 5.5769 5.27976 5.90388 4.63803C6.1915 4.07354 6.65045 3.6146 7.21493 3.32698C7.85667 3 8.69675 3 10.3769 3H14.7769C16.4571 3 17.2971 3 17.9389 3.32698C18.5034 3.6146 18.9623 4.07354 19.2499 4.63803C19.5769 5.27976 19.5769 6.11984 19.5769 7.8V21L17.3894 19L14.7644 21L12.5769 19L10.3894 21L7.7644 19L5.5769 21Z" stroke="#121212" stroke-width="2" stroke-linecap="round" stroke-linejoin="round"/>
</svg>
