<svg width="25" height="24" viewBox="0 0 25 24" fill="none" xmlns="http://www.w3.org/2000/svg">
<path d="M14.0769 21.0001V15.0001H10.0769V21.0001M19.0769 9.77818V16.2001C19.0769 17.8802 19.0769 18.7203 18.7499 19.362C18.4623 19.9265 18.0034 20.3855 17.4389 20.6731C16.7971 21.0001 15.9571 21.0001 14.2769 21.0001H9.8769C8.19675 21.0001 7.35667 21.0001 6.71493 20.6731C6.15045 20.3855 5.6915 19.9265 5.40388 19.362C5.0769 18.7203 5.0769 17.8802 5.0769 16.2001V9.77753M21.0769 12.0001L15.6437 5.96405C14.408 4.59129 13.7902 3.9049 13.0625 3.65151C12.4235 3.42894 11.7279 3.42899 11.0888 3.65165C10.3613 3.90516 9.74352 4.59163 8.50805 5.96458L3.0769 12.0001" stroke="#121212" stroke-width="2" stroke-linecap="round" stroke-linejoin="round"/>
</svg>
