<svg width="118" height="119" viewBox="0 0 118 119" fill="none" xmlns="http://www.w3.org/2000/svg">
<g clip-path="url(#clip0_4525_8340)" filter="url(#filter0_i_4525_8340)">
<path d="M17.3633 32.8949C17.3633 32.8949 24.9734 14.695 46.7839 14.695C64.9425 14.695 83.7275 28.6575 83.7275 28.6575C83.7275 28.6575 86.9777 26.4275 96.102 26.4275C105.226 26.4275 111.502 28.925 111.502 28.925C111.502 28.925 99.6612 12.955 81.8144 12.955C73.8925 12.955 68.5944 15.6326 68.5944 15.6326C68.5944 15.6326 71.4879 7.4252 85.3287 5.28254C80.9211 1.31257 74.1566 1.58005 73.179 1.58005C73.179 1.58005 61.563 1.26752 49.7672 8.31492C49.8571 7.29005 54.04 1.05917 57.5122 -1.43825C57.5122 -1.43825 47.0451 -2.65458 36.2803 5.8175C22.3917 16.7448 17.3633 32.8949 17.3633 32.8949Z" fill="#82562F"/>
<path d="M16.2567 36.8652C16.2567 36.8652 20.2626 40.6578 20.2626 44.0928C20.2626 47.9727 18.4816 51.3204 18.4816 51.3204C18.4816 51.3204 15.0993 50.563 11.6721 50.563C8.24493 50.563 4.64074 50.7404 3.88226 51.0107C4.32892 50.1632 7.53139 48.9131 12.5626 48.9131C17.5939 48.9131 18.3945 48.778 18.3945 48.1107C18.3945 47.4434 17.9507 47.2632 15.9899 47.2632C14.029 47.2632 5.53125 46.6381 0.5 50.9206C0.5 47.3082 4.41601 42.2205 8.46685 39.8554C12.5177 37.4903 16.2567 36.8652 16.2567 36.8652Z" fill="#82562F"/>
<path d="M19.096 54.3076C19.096 54.3076 10.9072 61.355 10.9072 69.6525C10.9072 77.95 14.4665 80.8951 18.742 80.8951C23.0176 80.8951 26.7089 76.79 26.7089 70.5C26.7089 64.21 19.0988 54.3076 19.0988 54.3076H19.096Z" fill="#82562F"/>
<path d="M113.505 66.3078C107.451 51.1402 95.7959 38.8277 80.5673 28.7451C65.3387 18.6625 53.2367 16.8774 45.6716 16.8774C24.6617 16.8774 17.7651 36.3725 17.7651 36.3725C17.7651 36.3725 22.2598 40.655 22.2598 44.09C22.2598 47.9699 20.2569 51.8976 20.2569 51.8976C20.2569 51.8976 32.4965 54.7977 37.303 62.4701C42.1095 70.1426 44.6912 76.3904 43.0001 94.3228C46.5621 90.1304 56.0852 78.8878 59.7344 78.8878C63.3835 78.8878 74.7776 92.777 76.2917 103.141C80.8314 94.9478 87.0621 86.8277 90.0005 86.8277C92.9389 86.8277 111.454 100.21 118.488 118.055C120.357 110.383 120.357 101.905 120.357 99.4077C120.357 96.9103 119.556 81.4753 113.502 66.305L113.505 66.3078ZM42.3118 31.8704C42.0112 31.8704 36.9715 31.8704 35.9012 32.3378C35.3675 32.6053 34.9995 32.7714 34.5332 31.9352C34.0668 31.0989 33.7663 29.8263 34.5669 29.5926C35.3675 29.3589 36.5867 29.3336 37.8087 29.3336C39.6122 29.3336 41.2752 30.3275 42.309 31.1299C42.7416 31.465 42.6096 31.8648 42.309 31.8648L42.3118 31.8704Z" fill="#82562F"/>
</g>
<defs>
<filter id="filter0_i_4525_8340" x="0.5" y="-1.5" width="120" height="122.101" filterUnits="userSpaceOnUse" color-interpolation-filters="sRGB">
<feFlood flood-opacity="0" result="BackgroundImageFix"/>
<feBlend mode="normal" in="SourceGraphic" in2="BackgroundImageFix" result="shape"/>
<feColorMatrix in="SourceAlpha" type="matrix" values="0 0 0 0 0 0 0 0 0 0 0 0 0 0 0 0 0 0 127 0" result="hardAlpha"/>
<feOffset dy="2.10084"/>
<feGaussianBlur stdDeviation="4.20168"/>
<feComposite in2="hardAlpha" operator="arithmetic" k2="-1" k3="1"/>
<feColorMatrix type="matrix" values="0 0 0 0 0 0 0 0 0 0 0 0 0 0 0 0 0 0 0.25 0"/>
<feBlend mode="normal" in2="shape" result="effect1_innerShadow_4525_8340"/>
</filter>
<clipPath id="clip0_4525_8340">
<rect width="120" height="120" fill="white" transform="translate(0.5 -1.5)"/>
</clipPath>
</defs>
</svg>
