<svg width="254" height="32" viewBox="0 0 254 32" fill="none" xmlns="http://www.w3.org/2000/svg">
<g clip-path="url(#clip0_2003_5511)">
<path d="M4.49878 9.1719C4.49878 9.1719 6.52814 4.31859 12.3443 4.31859C17.1866 4.31859 22.1959 8.04191 22.1959 8.04191C22.1959 8.04191 23.0626 7.44726 25.4958 7.44726C27.9289 7.44726 29.6024 8.11324 29.6024 8.11324C29.6024 8.11324 26.4449 3.85458 21.6858 3.85458C19.5732 3.85458 18.1604 4.56862 18.1604 4.56862C18.1604 4.56862 18.932 2.37997 22.6229 1.8086C21.4475 0.749938 19.6437 0.821266 19.383 0.821266C19.383 0.821266 16.2854 0.737925 13.1398 2.61723C13.1638 2.34393 14.2792 0.682364 15.2052 0.016386C15.2052 0.016386 12.4139 -0.307969 9.54333 1.95125C5.8397 4.86519 4.49878 9.1719 4.49878 9.1719Z" fill="#DB0001"/>
<path d="M4.20179 10.2307C4.20179 10.2307 5.27003 11.2421 5.27003 12.1581C5.27003 13.1927 4.79509 14.0854 4.79509 14.0854C4.79509 14.0854 3.89316 13.8835 2.97924 13.8835C2.06531 13.8835 1.1042 13.9308 0.901936 14.0028C1.02105 13.7768 1.87504 13.4435 3.21671 13.4435C4.55837 13.4435 4.77187 13.4074 4.77187 13.2295C4.77187 13.0515 4.65351 13.0035 4.13063 13.0035C3.60774 13.0035 1.34167 12.8368 0 13.9788C0 13.0155 1.04427 11.6588 2.12449 11.0281C3.20472 10.3974 4.20179 10.2307 4.20179 10.2307Z" fill="#DB0001"/>
<path d="M4.96151 14.8821C4.96151 14.8821 2.77783 16.7614 2.77783 18.9741C2.77783 21.1867 3.72696 21.9721 4.86712 21.9721C6.00727 21.9721 6.99161 20.8774 6.99161 19.2001C6.99161 17.5227 4.96225 14.8821 4.96225 14.8821H4.96151Z" fill="#DB0001"/>
<path d="M30.1366 18.0821C28.5222 14.0374 25.4142 10.754 21.3532 8.06535C17.2922 5.37666 14.065 4.90063 12.0477 4.90063C6.44504 4.90063 4.60596 10.0993 4.60596 10.0993C4.60596 10.0993 5.80454 11.2413 5.80454 12.1573C5.80454 13.192 5.27042 14.2393 5.27042 14.2393C5.27042 14.2393 8.53432 15.0127 9.81606 17.0587C11.0978 19.1047 11.7862 20.7707 11.3353 25.5527C12.2851 24.4348 14.8247 21.4367 15.7978 21.4367C16.7709 21.4367 19.8093 25.1405 20.213 27.9043C21.4236 25.7194 23.0852 23.554 23.8687 23.554C24.6523 23.554 29.5897 27.1227 31.4655 31.8814C31.9637 29.8354 31.9637 27.5747 31.9637 26.9087C31.9637 26.2427 31.7502 22.1267 30.1358 18.0813L30.1366 18.0821ZM11.1517 8.89876C11.0716 8.89876 9.72766 8.89876 9.44225 9.02339C9.29992 9.09472 9.20179 9.13902 9.07743 8.91603C8.95308 8.69303 8.87292 8.35366 9.08642 8.29134C9.29992 8.22903 9.62504 8.22227 9.9509 8.22227C10.4318 8.22227 10.8753 8.48731 11.151 8.70129C11.2664 8.79064 11.2311 8.89726 11.151 8.89726L11.1517 8.89876Z" fill="#DB0001"/>
</g>
<path d="M61.8601 10.324C61.8601 10.996 61.6981 11.626 61.3741 12.214C61.0621 12.802 60.5641 13.276 59.8801 13.636C59.2081 13.996 58.3561 14.176 57.3241 14.176H55.2181V19H52.6981V6.436H57.3241C58.2961 6.436 59.1241 6.604 59.8081 6.94C60.4921 7.276 61.0021 7.738 61.3381 8.326C61.6861 8.914 61.8601 9.58 61.8601 10.324ZM57.2161 12.142C57.9121 12.142 58.4281 11.986 58.7641 11.674C59.1001 11.35 59.2681 10.9 59.2681 10.324C59.2681 9.1 58.5841 8.488 57.2161 8.488H55.2181V12.142H57.2161ZM67.8272 19.162C66.8672 19.162 66.0032 18.952 65.2352 18.532C64.4672 18.1 63.8612 17.494 63.4172 16.714C62.9852 15.934 62.7692 15.034 62.7692 14.014C62.7692 12.994 62.9912 12.094 63.4352 11.314C63.8912 10.534 64.5092 9.934 65.2892 9.514C66.0692 9.082 66.9392 8.866 67.8992 8.866C68.8592 8.866 69.7292 9.082 70.5092 9.514C71.2892 9.934 71.9012 10.534 72.3452 11.314C72.8012 12.094 73.0292 12.994 73.0292 14.014C73.0292 15.034 72.7952 15.934 72.3272 16.714C71.8712 17.494 71.2472 18.1 70.4552 18.532C69.6752 18.952 68.7992 19.162 67.8272 19.162ZM67.8272 16.966C68.2832 16.966 68.7092 16.858 69.1052 16.642C69.5132 16.414 69.8372 16.078 70.0772 15.634C70.3172 15.19 70.4372 14.65 70.4372 14.014C70.4372 13.066 70.1852 12.34 69.6812 11.836C69.1892 11.32 68.5832 11.062 67.8632 11.062C67.1432 11.062 66.5372 11.32 66.0452 11.836C65.5652 12.34 65.3252 13.066 65.3252 14.014C65.3252 14.962 65.5592 15.694 66.0272 16.21C66.5072 16.714 67.1072 16.966 67.8272 16.966ZM88.4517 9.028L85.5357 19H82.8177L80.9997 12.034L79.1817 19H76.4457L73.5117 9.028H76.0677L77.8317 16.624L79.7397 9.028H82.4037L84.2757 16.606L86.0397 9.028H88.4517ZM98.8352 13.798C98.8352 14.158 98.8112 14.482 98.7632 14.77H91.4732C91.5332 15.49 91.7852 16.054 92.2292 16.462C92.6732 16.87 93.2192 17.074 93.8672 17.074C94.8032 17.074 95.4692 16.672 95.8652 15.868H98.5832C98.2952 16.828 97.7432 17.62 96.9272 18.244C96.1112 18.856 95.1092 19.162 93.9212 19.162C92.9612 19.162 92.0972 18.952 91.3292 18.532C90.5732 18.1 89.9792 17.494 89.5472 16.714C89.1272 15.934 88.9172 15.034 88.9172 14.014C88.9172 12.982 89.1272 12.076 89.5472 11.296C89.9672 10.516 90.5552 9.916 91.3112 9.496C92.0672 9.076 92.9372 8.866 93.9212 8.866C94.8692 8.866 95.7152 9.07 96.4592 9.478C97.2152 9.886 97.7972 10.468 98.2052 11.224C98.6252 11.968 98.8352 12.826 98.8352 13.798ZM96.2252 13.078C96.2132 12.43 95.9792 11.914 95.5232 11.53C95.0672 11.134 94.5092 10.936 93.8492 10.936C93.2252 10.936 92.6972 11.128 92.2652 11.512C91.8452 11.884 91.5872 12.406 91.4912 13.078H96.2252ZM102.945 10.576C103.269 10.048 103.689 9.634 104.205 9.334C104.733 9.034 105.333 8.884 106.005 8.884V11.53H105.339C104.547 11.53 103.947 11.716 103.539 12.088C103.143 12.46 102.945 13.108 102.945 14.032V19H100.425V9.028H102.945V10.576ZM118.583 19L114.011 13.402V19H111.491V6.436H114.011V12.07L118.583 6.436H121.625L116.441 12.664L121.769 19H118.583ZM124.455 7.84C124.011 7.84 123.639 7.702 123.339 7.426C123.051 7.138 122.907 6.784 122.907 6.364C122.907 5.944 123.051 5.596 123.339 5.32C123.639 5.032 124.011 4.888 124.455 4.888C124.899 4.888 125.265 5.032 125.553 5.32C125.853 5.596 126.003 5.944 126.003 6.364C126.003 6.784 125.853 7.138 125.553 7.426C125.265 7.702 124.899 7.84 124.455 7.84ZM125.697 9.028V19H123.177V9.028H125.697ZM133.462 8.884C134.65 8.884 135.61 9.262 136.342 10.018C137.074 10.762 137.44 11.806 137.44 13.15V19H134.92V13.492C134.92 12.7 134.722 12.094 134.326 11.674C133.93 11.242 133.39 11.026 132.706 11.026C132.01 11.026 131.458 11.242 131.05 11.674C130.654 12.094 130.456 12.7 130.456 13.492V19H127.936V9.028H130.456V10.27C130.792 9.838 131.218 9.502 131.734 9.262C132.262 9.01 132.838 8.884 133.462 8.884ZM143.493 8.866C144.237 8.866 144.891 9.016 145.455 9.316C146.019 9.604 146.463 9.982 146.787 10.45V9.028H149.325V19.072C149.325 19.996 149.139 20.818 148.767 21.538C148.395 22.27 147.837 22.846 147.093 23.266C146.349 23.698 145.449 23.914 144.393 23.914C142.977 23.914 141.813 23.584 140.901 22.924C140.001 22.264 139.491 21.364 139.371 20.224H141.873C142.005 20.68 142.287 21.04 142.719 21.304C143.163 21.58 143.697 21.718 144.321 21.718C145.053 21.718 145.647 21.496 146.103 21.052C146.559 20.62 146.787 19.96 146.787 19.072V17.524C146.463 17.992 146.013 18.382 145.437 18.694C144.873 19.006 144.225 19.162 143.493 19.162C142.653 19.162 141.885 18.946 141.189 18.514C140.493 18.082 139.941 17.476 139.533 16.696C139.137 15.904 138.939 14.998 138.939 13.978C138.939 12.97 139.137 12.076 139.533 11.296C139.941 10.516 140.487 9.916 141.171 9.496C141.867 9.076 142.641 8.866 143.493 8.866ZM146.787 14.014C146.787 13.402 146.667 12.88 146.427 12.448C146.187 12.004 145.863 11.668 145.455 11.44C145.047 11.2 144.609 11.08 144.141 11.08C143.673 11.08 143.241 11.194 142.845 11.422C142.449 11.65 142.125 11.986 141.873 12.43C141.633 12.862 141.513 13.378 141.513 13.978C141.513 14.578 141.633 15.106 141.873 15.562C142.125 16.006 142.449 16.348 142.845 16.588C143.253 16.828 143.685 16.948 144.141 16.948C144.609 16.948 145.047 16.834 145.455 16.606C145.863 16.366 146.187 16.03 146.427 15.598C146.667 15.154 146.787 14.626 146.787 14.014Z" fill="#DB0001"/>
<path d="M176.866 17.056C177.574 17.188 178.156 17.542 178.612 18.118C179.068 18.694 179.296 19.354 179.296 20.098C179.296 20.77 179.128 21.364 178.792 21.88C178.468 22.384 177.994 22.78 177.37 23.068C176.746 23.356 176.008 23.5 175.156 23.5H169.738V10.936H174.922C175.774 10.936 176.506 11.074 177.118 11.35C177.742 11.626 178.21 12.01 178.522 12.502C178.846 12.994 179.008 13.552 179.008 14.176C179.008 14.908 178.81 15.52 178.414 16.012C178.03 16.504 177.514 16.852 176.866 17.056ZM172.258 16.12H174.562C175.162 16.12 175.624 15.988 175.948 15.724C176.272 15.448 176.434 15.058 176.434 14.554C176.434 14.05 176.272 13.66 175.948 13.384C175.624 13.108 175.162 12.97 174.562 12.97H172.258V16.12ZM174.796 21.448C175.408 21.448 175.882 21.304 176.218 21.016C176.566 20.728 176.74 20.32 176.74 19.792C176.74 19.252 176.56 18.832 176.2 18.532C175.84 18.22 175.354 18.064 174.742 18.064H172.258V21.448H174.796ZM190.468 13.528V23.5H187.93V22.24C187.606 22.672 187.18 23.014 186.652 23.266C186.136 23.506 185.572 23.626 184.96 23.626C184.18 23.626 183.49 23.464 182.89 23.14C182.29 22.804 181.816 22.318 181.468 21.682C181.132 21.034 180.964 20.266 180.964 19.378V13.528H183.484V19.018C183.484 19.81 183.682 20.422 184.078 20.854C184.474 21.274 185.014 21.484 185.698 21.484C186.394 21.484 186.94 21.274 187.336 20.854C187.732 20.422 187.93 19.81 187.93 19.018V13.528H190.468ZM196.521 23.662C195.705 23.662 194.973 23.518 194.325 23.23C193.677 22.93 193.161 22.528 192.777 22.024C192.405 21.52 192.201 20.962 192.165 20.35H194.703C194.751 20.734 194.937 21.052 195.261 21.304C195.597 21.556 196.011 21.682 196.503 21.682C196.983 21.682 197.355 21.586 197.619 21.394C197.895 21.202 198.033 20.956 198.033 20.656C198.033 20.332 197.865 20.092 197.529 19.936C197.205 19.768 196.683 19.588 195.963 19.396C195.219 19.216 194.607 19.03 194.127 18.838C193.659 18.646 193.251 18.352 192.903 17.956C192.567 17.56 192.399 17.026 192.399 16.354C192.399 15.802 192.555 15.298 192.867 14.842C193.191 14.386 193.647 14.026 194.235 13.762C194.835 13.498 195.537 13.366 196.341 13.366C197.529 13.366 198.477 13.666 199.185 14.266C199.893 14.854 200.283 15.652 200.355 16.66H197.943C197.907 16.264 197.739 15.952 197.439 15.724C197.151 15.484 196.761 15.364 196.269 15.364C195.813 15.364 195.459 15.448 195.207 15.616C194.967 15.784 194.847 16.018 194.847 16.318C194.847 16.654 195.015 16.912 195.351 17.092C195.687 17.26 196.209 17.434 196.917 17.614C197.637 17.794 198.231 17.98 198.699 18.172C199.167 18.364 199.569 18.664 199.905 19.072C200.253 19.468 200.433 19.996 200.445 20.656C200.445 21.232 200.283 21.748 199.959 22.204C199.647 22.66 199.191 23.02 198.591 23.284C198.003 23.536 197.313 23.662 196.521 23.662ZM203.541 12.34C203.097 12.34 202.725 12.202 202.425 11.926C202.137 11.638 201.993 11.284 201.993 10.864C201.993 10.444 202.137 10.096 202.425 9.82C202.725 9.532 203.097 9.388 203.541 9.388C203.985 9.388 204.351 9.532 204.639 9.82C204.939 10.096 205.089 10.444 205.089 10.864C205.089 11.284 204.939 11.638 204.639 11.926C204.351 12.202 203.985 12.34 203.541 12.34ZM204.783 13.528V23.5H202.263V13.528H204.783ZM212.549 13.384C213.737 13.384 214.697 13.762 215.429 14.518C216.161 15.262 216.527 16.306 216.527 17.65V23.5H214.007V17.992C214.007 17.2 213.809 16.594 213.413 16.174C213.017 15.742 212.477 15.526 211.793 15.526C211.097 15.526 210.545 15.742 210.137 16.174C209.741 16.594 209.543 17.2 209.543 17.992V23.5H207.023V13.528H209.543V14.77C209.879 14.338 210.305 14.002 210.821 13.762C211.349 13.51 211.925 13.384 212.549 13.384ZM227.943 18.298C227.943 18.658 227.919 18.982 227.871 19.27H220.581C220.641 19.99 220.893 20.554 221.337 20.962C221.781 21.37 222.327 21.574 222.975 21.574C223.911 21.574 224.577 21.172 224.973 20.368H227.691C227.403 21.328 226.851 22.12 226.035 22.744C225.219 23.356 224.217 23.662 223.029 23.662C222.069 23.662 221.205 23.452 220.437 23.032C219.681 22.6 219.087 21.994 218.655 21.214C218.235 20.434 218.025 19.534 218.025 18.514C218.025 17.482 218.235 16.576 218.655 15.796C219.075 15.016 219.663 14.416 220.419 13.996C221.175 13.576 222.045 13.366 223.029 13.366C223.977 13.366 224.823 13.57 225.567 13.978C226.323 14.386 226.905 14.968 227.313 15.724C227.733 16.468 227.943 17.326 227.943 18.298ZM225.333 17.578C225.321 16.93 225.087 16.414 224.631 16.03C224.175 15.634 223.617 15.436 222.957 15.436C222.333 15.436 221.805 15.628 221.373 16.012C220.953 16.384 220.695 16.906 220.599 17.578H225.333ZM233.349 23.662C232.533 23.662 231.801 23.518 231.153 23.23C230.505 22.93 229.989 22.528 229.605 22.024C229.233 21.52 229.029 20.962 228.993 20.35H231.531C231.579 20.734 231.765 21.052 232.089 21.304C232.425 21.556 232.839 21.682 233.331 21.682C233.811 21.682 234.183 21.586 234.447 21.394C234.723 21.202 234.861 20.956 234.861 20.656C234.861 20.332 234.693 20.092 234.357 19.936C234.033 19.768 233.511 19.588 232.791 19.396C232.047 19.216 231.435 19.03 230.955 18.838C230.487 18.646 230.079 18.352 229.731 17.956C229.395 17.56 229.227 17.026 229.227 16.354C229.227 15.802 229.383 15.298 229.695 14.842C230.019 14.386 230.475 14.026 231.063 13.762C231.663 13.498 232.365 13.366 233.169 13.366C234.357 13.366 235.305 13.666 236.013 14.266C236.721 14.854 237.111 15.652 237.183 16.66H234.771C234.735 16.264 234.567 15.952 234.267 15.724C233.979 15.484 233.589 15.364 233.097 15.364C232.641 15.364 232.287 15.448 232.035 15.616C231.795 15.784 231.675 16.018 231.675 16.318C231.675 16.654 231.843 16.912 232.179 17.092C232.515 17.26 233.037 17.434 233.745 17.614C234.465 17.794 235.059 17.98 235.527 18.172C235.995 18.364 236.397 18.664 236.733 19.072C237.081 19.468 237.261 19.996 237.273 20.656C237.273 21.232 237.111 21.748 236.787 22.204C236.475 22.66 236.019 23.02 235.419 23.284C234.831 23.536 234.141 23.662 233.349 23.662ZM242.907 23.662C242.091 23.662 241.359 23.518 240.711 23.23C240.063 22.93 239.547 22.528 239.163 22.024C238.791 21.52 238.587 20.962 238.551 20.35H241.089C241.137 20.734 241.323 21.052 241.647 21.304C241.983 21.556 242.397 21.682 242.889 21.682C243.369 21.682 243.741 21.586 244.005 21.394C244.281 21.202 244.419 20.956 244.419 20.656C244.419 20.332 244.251 20.092 243.915 19.936C243.591 19.768 243.069 19.588 242.349 19.396C241.605 19.216 240.993 19.03 240.513 18.838C240.045 18.646 239.637 18.352 239.289 17.956C238.953 17.56 238.785 17.026 238.785 16.354C238.785 15.802 238.941 15.298 239.253 14.842C239.577 14.386 240.033 14.026 240.621 13.762C241.221 13.498 241.923 13.366 242.727 13.366C243.915 13.366 244.863 13.666 245.571 14.266C246.279 14.854 246.669 15.652 246.741 16.66H244.329C244.293 16.264 244.125 15.952 243.825 15.724C243.537 15.484 243.147 15.364 242.655 15.364C242.199 15.364 241.845 15.448 241.593 15.616C241.353 15.784 241.233 16.018 241.233 16.318C241.233 16.654 241.401 16.912 241.737 17.092C242.073 17.26 242.595 17.434 243.303 17.614C244.023 17.794 244.617 17.98 245.085 18.172C245.553 18.364 245.955 18.664 246.291 19.072C246.639 19.468 246.819 19.996 246.831 20.656C246.831 21.232 246.669 21.748 246.345 22.204C246.033 22.66 245.577 23.02 244.977 23.284C244.389 23.536 243.699 23.662 242.907 23.662Z" fill="url(#paint0_diamond_2003_5511)"/>
<defs>
<radialGradient id="paint0_diamond_2003_5511" cx="0" cy="0" r="1" gradientUnits="userSpaceOnUse" gradientTransform="translate(231.277 14.5) rotate(171.314) scale(72.8354 23.4771)">
<stop stop-color="#121212"/>
<stop offset="0.333333" stop-color="#454545"/>
<stop offset="0.666667"/>
<stop offset="1" stop-color="#353535"/>
</radialGradient>
<clipPath id="clip0_2003_5511">
<rect width="32" height="32" fill="white"/>
</clipPath>
</defs>
</svg>
