<svg width="25" height="24" viewBox="0 0 25 24" fill="none" xmlns="http://www.w3.org/2000/svg">
<path d="M14.0771 21.0001V15.0001H10.0771V21.0001M19.0771 9.77818V16.2001C19.0771 17.8802 19.0771 18.7203 18.7502 19.362C18.4625 19.9265 18.0036 20.3855 17.4391 20.6731C16.7974 21.0001 15.9573 21.0001 14.2771 21.0001H9.87715C8.19699 21.0001 7.35691 21.0001 6.71518 20.6731C6.15069 20.3855 5.69175 19.9265 5.40413 19.362C5.07715 18.7203 5.07715 17.8802 5.07715 16.2001V9.77753M21.0771 12.0001L15.6439 5.96405C14.4082 4.59129 13.7904 3.9049 13.0628 3.65151C12.4237 3.42894 11.7281 3.42899 11.0891 3.65165C10.3615 3.90516 9.74376 4.59163 8.50829 5.96458L3.07715 12.0001" stroke="#959595" stroke-width="2" stroke-linecap="round" stroke-linejoin="round"/>
</svg>
