<svg width="18" height="18" viewBox="0 0 18 18" fill="none" xmlns="http://www.w3.org/2000/svg">
<path d="M12 15.75H13.875M12.75 15.75H5.85C4.58988 15.75 3.95982 15.75 3.47852 15.5047C3.05516 15.289 2.71095 14.9448 2.49524 14.5214C2.25 14.0401 2.25 13.4101 2.25 12.15V4.31777C2.25 3.63873 2.25 3.2992 2.39265 3.10231C2.51708 2.93056 2.70842 2.81952 2.91928 2.7967C3.161 2.77053 3.45579 2.93898 4.04537 3.27588L4.27963 3.40975C4.49664 3.53375 4.60514 3.59575 4.72037 3.62003C4.82234 3.64151 4.92766 3.64151 5.02963 3.62003C5.14486 3.59575 5.25336 3.53375 5.47037 3.40975L6.90463 2.59017C7.12164 2.46616 7.23014 2.40416 7.34537 2.37988C7.44734 2.3584 7.55266 2.3584 7.65463 2.37988C7.76986 2.40416 7.87836 2.46616 8.09537 2.59017L9.52963 3.40975C9.74663 3.53375 9.85514 3.59575 9.97037 3.62003C10.0723 3.64151 10.1777 3.64151 10.2796 3.62003C10.3949 3.59575 10.5034 3.53375 10.7204 3.40975L10.9546 3.27588C11.5442 2.93898 11.839 2.77053 12.0807 2.7967C12.2916 2.81952 12.4829 2.93056 12.6074 3.10231C12.75 3.2992 12.75 3.63873 12.75 4.31777V10.5M9 7.87498C8.625 7.78197 8.01381 7.77854 7.5 7.78197C7.32818 7.78311 7.43206 7.77581 7.2 7.78197C6.59443 7.80086 6.00124 8.05254 6 8.7656C5.99869 9.52523 6.75 9.74998 7.5 9.74998C8.25 9.74998 9 9.92338 9 10.7344C9 11.3438 8.39438 11.6108 7.63957 11.6993C7.03957 11.6993 6.75 11.7187 6 11.625M7.5 12V12.75M7.5 6.74996V7.49996M12.75 9.74996H15.75V14.25C15.75 15.0784 15.0784 15.75 14.25 15.75C13.4216 15.75 12.75 15.0784 12.75 14.25V9.74996Z" stroke="#121212" stroke-width="1.2" stroke-linecap="round" stroke-linejoin="round"/>
</svg>
