<svg width="24" height="24" viewBox="0 0 24 24" fill="none" xmlns="http://www.w3.org/2000/svg">
<path d="M3 8.8C3 7.11984 3 6.27976 3.32698 5.63803C3.6146 5.07354 4.07354 4.6146 4.63803 4.32698C5.27976 4 6.11984 4 7.8 4H16.2C17.8802 4 18.7202 4 19.362 4.32698C19.9265 4.6146 20.3854 5.07354 20.673 5.63803C21 6.27976 21 7.11984 21 8.8V16.4444V20L17.6757 18.3378C17.4237 18.2118 17.2977 18.1488 17.1656 18.1044C17.0484 18.065 16.9277 18.0365 16.8052 18.0193C16.6672 18 16.5263 18 16.2446 18H7.8C6.11984 18 5.27976 18 4.63803 17.673C4.07354 17.3854 3.6146 16.9265 3.32698 16.362C3 15.7202 3 14.8802 3 13.2V8.8Z" stroke="#121212" stroke-width="1.6" stroke-linecap="round" stroke-linejoin="round"/>
<path d="M6.631 10.045V11.039H8.234V11.963H6.631V13.041H8.444V14H5.434V9.086H8.444V10.045H6.631ZM13.3671 14H12.1701L10.1681 10.969V14H8.97111V9.086H10.1681L12.1701 12.131V9.086H13.3671V14ZM17.2468 10.64C17.1581 10.4767 17.0298 10.353 16.8618 10.269C16.6984 10.1803 16.5048 10.136 16.2808 10.136C15.8934 10.136 15.5831 10.2643 15.3498 10.521C15.1164 10.773 14.9998 11.1113 14.9998 11.536C14.9998 11.9887 15.1211 12.3433 15.3638 12.6C15.6111 12.852 15.9494 12.978 16.3788 12.978C16.6728 12.978 16.9201 12.9033 17.1208 12.754C17.3261 12.6047 17.4754 12.39 17.5688 12.11H16.0498V11.228H18.6538V12.341C18.5651 12.6397 18.4134 12.9173 18.1988 13.174C17.9888 13.4307 17.7204 13.6383 17.3938 13.797C17.0671 13.9557 16.6984 14.035 16.2878 14.035C15.8024 14.035 15.3684 13.93 14.9858 13.72C14.6078 13.5053 14.3114 13.209 14.0968 12.831C13.8868 12.453 13.7818 12.0213 13.7818 11.536C13.7818 11.0507 13.8868 10.619 14.0968 10.241C14.3114 9.85833 14.6078 9.562 14.9858 9.352C15.3638 9.13733 15.7954 9.03 16.2808 9.03C16.8688 9.03 17.3634 9.17233 17.7648 9.457C18.1708 9.74167 18.4391 10.136 18.5698 10.64H17.2468Z" fill="black"/>
</svg>
