<svg width="24" height="24" viewBox="0 0 24 24" fill="none" xmlns="http://www.w3.org/2000/svg">
<path d="M6 3V14.8C6 15.9201 6 16.4802 6.21799 16.908C6.40973 17.2843 6.71569 17.5903 7.09202 17.782C7.51984 18 8.0799 18 9.2 18H15M21 18H18M18 21V9.2C18 8.0799 18 7.51984 17.782 7.09202C17.5903 6.71569 17.2843 6.40973 16.908 6.21799C16.4802 6 15.9201 6 14.8 6H9M3 6H6" stroke="#121212" stroke-width="1.6" stroke-linecap="round" stroke-linejoin="round"/>
<path d="M12.748 10.736C12.7053 10.5387 12.6307 10.392 12.524 10.296C12.4173 10.1947 12.2653 10.144 12.068 10.144C11.764 10.144 11.5453 10.2773 11.412 10.544C11.2787 10.8053 11.2093 11.2213 11.204 11.792C11.3213 11.6053 11.4893 11.4587 11.708 11.352C11.932 11.2453 12.1773 11.192 12.444 11.192C12.9667 11.192 13.3853 11.3573 13.7 11.688C14.02 12.0187 14.18 12.48 14.18 13.072C14.18 13.4613 14.1 13.8027 13.94 14.096C13.7853 14.3893 13.556 14.6187 13.252 14.784C12.9533 14.9493 12.5987 15.032 12.188 15.032C11.3667 15.032 10.796 14.776 10.476 14.264C10.156 13.7467 9.996 13.0053 9.996 12.04C9.996 11.0267 10.164 10.2747 10.5 9.784C10.8413 9.288 11.3853 9.04 12.132 9.04C12.532 9.04 12.868 9.12 13.14 9.28C13.4173 9.43467 13.6253 9.64 13.764 9.896C13.908 10.152 13.9933 10.432 14.02 10.736H12.748ZM12.116 12.272C11.8867 12.272 11.6947 12.3413 11.54 12.48C11.3907 12.6133 11.316 12.8053 11.316 13.056C11.316 13.312 11.3853 13.512 11.524 13.656C11.668 13.8 11.8707 13.872 12.132 13.872C12.3667 13.872 12.5507 13.8027 12.684 13.664C12.8227 13.52 12.892 13.3253 12.892 13.08C12.892 12.8293 12.8253 12.632 12.692 12.488C12.5587 12.344 12.3667 12.272 12.116 12.272Z" fill="black"/>
</svg>
