<svg width="24" height="24" viewBox="0 0 24 24" fill="none" xmlns="http://www.w3.org/2000/svg">
<path d="M12 11C14.2091 11 16 9.20914 16 7C16 4.79086 14.2091 3 12 3C9.79086 3 8 4.79086 8 7C8 9.20914 9.79086 11 12 11Z" stroke="#121212" stroke-width="1.6" stroke-linecap="round" stroke-linejoin="round"/>
<path d="M8 21H7C5.9 21 5 20.1 5 19V18C5 15.24 7.24 13 10 13H14C14.41 13 14.82 13.05 15.2 13.14" stroke="#121212" stroke-width="1.6" stroke-linecap="round" stroke-linejoin="round"/>
<path d="M17.04 14.04C18.23 14.95 19 16.39 19 18.01V19.01C19 20.11 18.1 21.01 17 21.01H11" stroke="#121212" stroke-width="1.6" stroke-linecap="round" stroke-linejoin="round"/>
<path d="M8 21L19 9" stroke="#121212" stroke-width="1.6" stroke-linecap="round" stroke-linejoin="round"/>
</svg>
