<svg width="24" height="24" viewBox="0 0 24 24" fill="none" xmlns="http://www.w3.org/2000/svg">
<path d="M16.5184 13.4951C15.9334 13.1531 15.4474 12.6761 15.1054 12.0821C14.4844 11.0111 13.3234 10.2911 12.0004 10.2911C10.6774 10.2911 9.51641 11.0111 8.89541 12.0821C8.55341 12.6671 8.06743 13.1441 7.48243 13.4951C6.19543 14.2421 5.42143 15.7631 5.79043 17.4281C6.07843 18.7241 7.12243 19.7771 8.40943 20.0921C9.21943 20.2901 9.99343 20.2091 10.6594 19.9301C11.5144 19.5701 12.4774 19.5701 13.3324 19.9301C13.9984 20.2091 14.7724 20.2901 15.5824 20.0921C16.8694 19.7771 17.9134 18.7241 18.2014 17.4281C18.5704 15.7631 17.7964 14.2421 16.5094 13.4951H16.5184Z" stroke="#121212" stroke-width="1.6" stroke-linecap="round" stroke-linejoin="round"/>
<path d="M9.3 8.50006C10.2941 8.50006 11.1 7.4927 11.1 6.25006C11.1 5.00742 10.2941 4.00006 9.3 4.00006C8.30589 4.00006 7.5 5.00742 7.5 6.25006C7.5 7.4927 8.30589 8.50006 9.3 8.50006Z" stroke="#121212" stroke-width="1.6" stroke-linecap="round" stroke-linejoin="round"/>
<path d="M14.7004 8.50006C15.6945 8.50006 16.5004 7.4927 16.5004 6.25006C16.5004 5.00742 15.6945 4.00006 14.7004 4.00006C13.7063 4.00006 12.9004 5.00742 12.9004 6.25006C12.9004 7.4927 13.7063 8.50006 14.7004 8.50006Z" stroke="#121212" stroke-width="1.6" stroke-linecap="round" stroke-linejoin="round"/>
<path d="M19.2004 12.1C20.1945 12.1 21.0004 11.0927 21.0004 9.85004C21.0004 8.6074 20.1945 7.60004 19.2004 7.60004C18.2063 7.60004 17.4004 8.6074 17.4004 9.85004C17.4004 11.0927 18.2063 12.1 19.2004 12.1Z" stroke="#121212" stroke-width="1.6" stroke-linecap="round" stroke-linejoin="round"/>
<path d="M4.8 12.1C5.79411 12.1 6.6 11.0927 6.6 9.85004C6.6 8.6074 5.79411 7.60004 4.8 7.60004C3.80589 7.60004 3 8.6074 3 9.85004C3 11.0927 3.80589 12.1 4.8 12.1Z" stroke="#121212" stroke-width="1.6" stroke-linecap="round" stroke-linejoin="round"/>
</svg>
