<svg width="18" height="18" viewBox="0 0 18 18" fill="none" xmlns="http://www.w3.org/2000/svg">
<path d="M8.45184 3.30836C8.62547 2.91883 8.71229 2.72406 8.83318 2.66408C8.93819 2.61197 9.06152 2.61197 9.16654 2.66408C9.28742 2.72406 9.37424 2.91883 9.54788 3.30836L10.9309 6.41106C10.9822 6.52622 11.0079 6.58379 11.0476 6.62789C11.0828 6.6669 11.1257 6.6981 11.1737 6.71947C11.2279 6.74362 11.2906 6.75023 11.4159 6.76347L14.7942 7.12002C15.2183 7.16478 15.4304 7.18716 15.5248 7.2836C15.6068 7.36737 15.6449 7.48467 15.6278 7.60064C15.6081 7.73415 15.4497 7.87691 15.1329 8.16242L12.6094 10.4365C12.5157 10.5209 12.4689 10.5631 12.4393 10.6145C12.413 10.66 12.3966 10.7105 12.3911 10.7627C12.3849 10.8217 12.398 10.8834 12.4241 11.0067L13.129 14.3298C13.2174 14.747 13.2617 14.9556 13.1991 15.0752C13.1448 15.1791 13.045 15.2516 12.9295 15.2711C12.7964 15.2937 12.6117 15.1871 12.2422 14.974L9.29963 13.2768C9.19041 13.2138 9.13581 13.1823 9.07776 13.17C9.0264 13.1591 8.97332 13.1591 8.92195 13.17C8.8639 13.1823 8.8093 13.2138 8.70008 13.2768L5.75747 14.974C5.38803 15.1871 5.20332 15.2937 5.07026 15.2711C4.95467 15.2516 4.85489 15.1791 4.80056 15.0752C4.73802 14.9556 4.78226 14.747 4.87075 14.3298L5.57558 11.0067C5.60174 10.8834 5.61482 10.8217 5.6086 10.7627C5.60311 10.7105 5.5867 10.66 5.56046 10.6145C5.53079 10.5631 5.48397 10.5209 5.39031 10.4365L2.86685 8.16241C2.55003 7.87691 2.39163 7.73415 2.37194 7.60064C2.35483 7.48467 2.39295 7.36737 2.47495 7.2836C2.56936 7.18716 2.78142 7.16478 3.20554 7.12002L6.58376 6.76347C6.70914 6.75023 6.77183 6.74362 6.82604 6.71947C6.87401 6.6981 6.91695 6.6669 6.95209 6.62789C6.99181 6.58379 7.01748 6.52622 7.06881 6.41106L8.45184 3.30836Z" stroke="#121212" stroke-width="1.6" stroke-linecap="round" stroke-linejoin="round"/>
</svg>
