<svg width="16" height="16" viewBox="0 0 16 16" fill="none" xmlns="http://www.w3.org/2000/svg">
<path d="M7.99195 14.4634C11.5616 14.4634 14.4568 11.5696 14.4586 7.99999C14.4604 4.43037 11.5681 1.53662 7.99852 1.53662C4.4289 1.53662 1.53369 4.43037 1.53187 7.99999C1.53006 11.5696 4.42233 14.4634 7.99195 14.4634Z" fill="#E9B522"/>
<path d="M8 16C3.58877 16 0 12.4111 0 7.9998C0 3.58845 3.58877 0 8 0C12.4112 0 16 3.58886 16 7.9998C16 12.4107 12.4112 16 8 16ZM8 1.31157C4.31214 1.31157 1.31153 4.31184 1.31153 8.0002C1.31153 11.6886 4.31214 14.6888 8 14.6888C11.6879 14.6888 14.6885 11.6882 14.6885 8.0002C14.6885 4.31224 11.6879 1.31157 8 1.31157Z" fill="#F7DE61"/>
<path d="M0.473428 7.9998C0.473428 3.6703 3.8283 0.133604 8 0.00401214C7.92135 0.00160485 7.84271 0 7.76329 0C3.48258 0 0 3.58886 0 7.9998C0 12.4107 3.48258 16 7.76329 16C7.84232 16 7.92135 15.9984 8 15.996C3.82869 15.8664 0.473428 12.3297 0.473428 7.9998Z" fill="#FFF2BD"/>
<path d="M8.18555 2C8.12347 2 8.06173 2.00144 8 2.00324C11.1205 2.10474 13.6289 4.75553 13.6289 7.99982C13.6289 11.2441 11.1205 13.8949 8 13.9968C8.06173 13.9989 8.12347 14 8.18555 14C11.3915 14 14 11.3082 14 7.99982C14 4.69146 11.3915 2 8.18555 2Z" fill="#CE9811"/>
<g clip-path="url(#clip0_4525_8351)">
<path d="M4.72607 6.29291C4.72607 6.29291 5.23341 5.07959 6.68745 5.07959C7.89802 5.07959 9.15036 6.01042 9.15036 6.01042C9.15036 6.01042 9.36704 5.86175 9.97532 5.86175C10.5836 5.86175 11.002 6.02825 11.002 6.02825C11.002 6.02825 10.2126 4.96358 9.02282 4.96358C8.49469 4.96358 8.14148 5.14209 8.14148 5.14209C8.14148 5.14209 8.33438 4.59493 9.2571 4.45209C8.96326 4.18742 8.5123 4.20526 8.44712 4.20526C8.44712 4.20526 7.67272 4.18442 6.88634 4.65425C6.89233 4.58592 7.17119 4.17053 7.40267 4.00404C7.40267 4.00404 6.70486 3.92295 5.98721 4.48775C5.0613 5.21624 4.72607 6.29291 4.72607 6.29291Z" fill="#CE9811"/>
<path d="M4.65201 6.55762C4.65201 6.55762 4.91907 6.81046 4.91907 7.03946C4.91907 7.29811 4.80034 7.5213 4.80034 7.5213C4.80034 7.5213 4.57485 7.4708 4.34637 7.4708C4.11789 7.4708 3.87761 7.48263 3.82705 7.50065C3.85682 7.44415 4.07032 7.36081 4.40574 7.36081C4.74116 7.36081 4.79453 7.3518 4.79453 7.30731C4.79453 7.26283 4.76494 7.25081 4.63422 7.25081C4.5035 7.25081 3.93698 7.20914 3.60156 7.49464C3.60156 7.25382 3.86263 6.91463 4.13269 6.75696C4.40274 6.59929 4.65201 6.55762 4.65201 6.55762Z" fill="#CE9811"/>
<path d="M4.84182 7.72046C4.84182 7.72046 4.2959 8.19029 4.2959 8.74345C4.2959 9.29662 4.53318 9.49296 4.81822 9.49296C5.10326 9.49296 5.34934 9.21929 5.34934 8.79995C5.34934 8.38062 4.842 7.72046 4.842 7.72046H4.84182Z" fill="#CE9811"/>
<path d="M11.1356 8.52045C10.732 7.50928 9.95498 6.68845 8.93974 6.01628C7.9245 5.3441 7.1177 5.2251 6.61336 5.2251C5.2127 5.2251 4.75293 6.52477 4.75293 6.52477C4.75293 6.52477 5.05258 6.81027 5.05258 7.03927C5.05258 7.29793 4.91905 7.55978 4.91905 7.55978C4.91905 7.55978 5.73502 7.75311 6.05546 8.26461C6.37589 8.77611 6.548 9.19262 6.43526 10.3881C6.67273 10.1086 7.3076 9.35912 7.55088 9.35912C7.79415 9.35912 8.55376 10.2851 8.6547 10.976C8.95735 10.4298 9.37273 9.88845 9.56862 9.88845C9.76452 9.88845 10.9989 10.7806 11.4678 11.9703C11.5924 11.4588 11.5924 10.8936 11.5924 10.7271C11.5924 10.5606 11.539 9.53162 11.1354 8.52026L11.1356 8.52045ZM6.38937 6.22463C6.36934 6.22463 6.03336 6.22463 5.962 6.25579C5.92642 6.27362 5.90189 6.28469 5.8708 6.22895C5.83971 6.1732 5.81967 6.08835 5.87305 6.07277C5.92642 6.0572 6.0077 6.05551 6.08917 6.05551C6.2094 6.05551 6.32027 6.12177 6.38919 6.17526C6.41803 6.1976 6.40923 6.22425 6.38919 6.22425L6.38937 6.22463Z" fill="#CE9811"/>
</g>
<g clip-path="url(#clip1_4525_8351)">
<path d="M4.12451 6.29291C4.12451 6.29291 4.63185 5.07959 6.08589 5.07959C7.29646 5.07959 8.54879 6.01042 8.54879 6.01042C8.54879 6.01042 8.76547 5.86175 9.37376 5.86175C9.98204 5.86175 10.4004 6.02825 10.4004 6.02825C10.4004 6.02825 9.61104 4.96358 8.42126 4.96358C7.89313 4.96358 7.53992 5.14209 7.53992 5.14209C7.53992 5.14209 7.73282 4.59493 8.65554 4.45209C8.3617 4.18742 7.91073 4.20526 7.84556 4.20526C7.84556 4.20526 7.07116 4.18442 6.28478 4.65425C6.29077 4.58592 6.56963 4.17053 6.8011 4.00404C6.8011 4.00404 6.1033 3.92295 5.38565 4.48775C4.45974 5.21624 4.12451 6.29291 4.12451 6.29291Z" fill="#F7DE61"/>
<path d="M4.05045 6.55762C4.05045 6.55762 4.31751 6.81046 4.31751 7.03946C4.31751 7.29811 4.19877 7.5213 4.19877 7.5213C4.19877 7.5213 3.97329 7.4708 3.74481 7.4708C3.51633 7.4708 3.27605 7.48263 3.22548 7.50065C3.25526 7.44415 3.46876 7.36081 3.80418 7.36081C4.13959 7.36081 4.19297 7.3518 4.19297 7.30731C4.19297 7.26283 4.16338 7.25081 4.03266 7.25081C3.90194 7.25081 3.33542 7.20914 3 7.49464C3 7.25382 3.26107 6.91463 3.53112 6.75696C3.80118 6.59929 4.05045 6.55762 4.05045 6.55762Z" fill="#F7DE61"/>
<path d="M4.24025 7.72046C4.24025 7.72046 3.69434 8.19029 3.69434 8.74345C3.69434 9.29662 3.93162 9.49296 4.21666 9.49296C4.5017 9.49296 4.74778 9.21929 4.74778 8.79995C4.74778 8.38062 4.24044 7.72046 4.24044 7.72046H4.24025Z" fill="#F7DE61"/>
<path d="M10.534 8.52045C10.1304 7.50928 9.35342 6.68845 8.33818 6.01628C7.32294 5.3441 6.51614 5.2251 6.0118 5.2251C4.61114 5.2251 4.15137 6.52477 4.15137 6.52477C4.15137 6.52477 4.45101 6.81027 4.45101 7.03927C4.45101 7.29793 4.31748 7.55978 4.31748 7.55978C4.31748 7.55978 5.13346 7.75311 5.45389 8.26461C5.77433 8.77611 5.94644 9.19262 5.8337 10.3881C6.07116 10.1086 6.70604 9.35912 6.94932 9.35912C7.19259 9.35912 7.9522 10.2851 8.05314 10.976C8.35578 10.4298 8.77117 9.88845 8.96706 9.88845C9.16295 9.88845 10.3973 10.7806 10.8663 11.9703C10.9908 11.4588 10.9908 10.8936 10.9908 10.7271C10.9908 10.5606 10.9374 9.53162 10.5338 8.52026L10.534 8.52045ZM5.78781 6.22463C5.76777 6.22463 5.43179 6.22463 5.36044 6.25579C5.32486 6.27362 5.30032 6.28469 5.26924 6.22895C5.23815 6.1732 5.21811 6.08835 5.27148 6.07277C5.32486 6.0572 5.40614 6.05551 5.4876 6.05551C5.60784 6.05551 5.71871 6.12177 5.78762 6.17526C5.81647 6.1976 5.80766 6.22425 5.78762 6.22425L5.78781 6.22463Z" fill="#F7DE61"/>
</g>
<defs>
<clipPath id="clip0_4525_8351">
<rect width="8" height="8" fill="white" transform="translate(3.60156 4)"/>
</clipPath>
<clipPath id="clip1_4525_8351">
<rect width="8" height="8" fill="white" transform="translate(3 4)"/>
</clipPath>
</defs>
</svg>
