<svg width="18" height="18" viewBox="0 0 18 18" fill="none" xmlns="http://www.w3.org/2000/svg">
<path d="M14.25 9C14.25 11.8995 11.8995 14.25 9 14.25M14.25 9C14.25 6.10051 11.8995 3.75 9 3.75M14.25 9H15.75M9 14.25C6.10051 14.25 3.75 11.8995 3.75 9M9 14.25V15.75M3.75 9C3.75 6.10051 6.10051 3.75 9 3.75M3.75 9H2.25M9 3.75V2.25M11.25 9C11.25 10.2426 10.2426 11.25 9 11.25C7.75736 11.25 6.75 10.2426 6.75 9C6.75 7.75736 7.75736 6.75 9 6.75C10.2426 6.75 11.25 7.75736 11.25 9Z" stroke="#00C7A9" stroke-width="1.2" stroke-linecap="round" stroke-linejoin="round"/>
</svg>
