<svg width="18" height="18" viewBox="0 0 18 18" fill="none" xmlns="http://www.w3.org/2000/svg">
<path d="M2.24988 15.7502L1.68067 15.5605C1.60723 15.7808 1.66752 16.0237 1.83544 16.1841C2.00336 16.3445 2.24876 16.3936 2.46547 16.3102L2.24988 15.7502ZM4.57674 11.1734L4.15253 10.749L4.15248 10.7491L4.57674 11.1734ZM3.7156 12.096L3.23661 11.7346L3.7156 12.096ZM2.83739 13.9877L2.26818 13.798L2.26818 13.798L2.83739 13.9877ZM3.27748 12.8049L2.74007 12.538L3.27748 12.8049ZM6.56959 13.4232L6.14538 12.9988L6.14533 12.9989L6.56959 13.4232ZM5.742 14.2008L5.37411 13.7268L5.742 14.2008ZM4.06556 15.0511L4.28115 15.6111L4.06556 15.0511ZM5.11214 14.6103L4.82824 14.0817L5.11214 14.6103ZM15.1765 4.81847L15.6007 5.24279L15.6008 5.24274L15.1765 4.81847ZM13.0552 2.69715L13.4794 3.12147L13.4795 3.12142L13.0552 2.69715ZM5.70943 10.6407C5.70943 10.3093 5.4408 10.0407 5.10943 10.0407C4.77806 10.0407 4.50943 10.3093 4.50943 10.6407H5.70943ZM5.10943 12.7501H4.50943C4.50943 13.0815 4.77806 13.3501 5.10943 13.3501V12.7501ZM7.24266 13.3501C7.57403 13.3501 7.84266 13.0815 7.84266 12.7501C7.84266 12.4187 7.57403 12.1501 7.24266 12.1501V13.3501ZM14.7523 4.39415L6.14538 12.9988L6.9938 13.8475L15.6007 5.24279L14.7523 4.39415ZM5.00095 11.5977L13.4794 3.12147L12.631 2.27283L4.15253 10.749L5.00095 11.5977ZM3.84996 14.4912L2.03428 15.1903L2.46547 16.3102L4.28115 15.6111L3.84996 14.4912ZM2.81909 15.94L3.4066 14.1774L2.26818 13.798L1.68067 15.5605L2.81909 15.94ZM4.15248 10.7491C3.71556 11.186 3.45633 11.4434 3.23661 11.7346L4.19459 12.4573C4.35245 12.2481 4.54144 12.0572 5.001 11.5976L4.15248 10.7491ZM3.4066 14.1774C3.61212 13.5609 3.69832 13.3065 3.81488 13.0717L2.74007 12.538C2.57783 12.8648 2.46357 13.2118 2.26818 13.798L3.4066 14.1774ZM3.23661 11.7346C3.0466 11.9865 2.88038 12.2555 2.74007 12.538L3.81488 13.0717C3.92218 12.8556 4.04929 12.6499 4.19459 12.4573L3.23661 11.7346ZM6.14533 12.9989C5.73218 13.412 5.56067 13.582 5.37411 13.7268L6.10989 14.6748C6.36953 14.4733 6.60101 14.2403 6.99385 13.8474L6.14533 12.9989ZM4.28115 15.6111C4.79961 15.4114 5.1065 15.2944 5.39605 15.1389L4.82824 14.0817C4.62018 14.1935 4.39522 14.2813 3.84996 14.4912L4.28115 15.6111ZM5.37411 13.7268C5.20235 13.8601 5.01975 13.9789 4.82824 14.0817L5.39605 15.1389C5.64653 15.0044 5.88531 14.8491 6.10989 14.6748L5.37411 13.7268ZM14.7522 3.12142C15.1037 3.47289 15.1037 4.04274 14.7522 4.39421L15.6008 5.24274C16.4209 4.42264 16.4209 3.09299 15.6008 2.27289L14.7522 3.12142ZM15.6008 2.27289C14.7807 1.45279 13.451 1.45279 12.6309 2.27289L13.4795 3.12142C13.8309 2.76994 14.4008 2.76994 14.7522 3.12142L15.6008 2.27289ZM4.50943 10.6407V12.7501H5.70943V10.6407H4.50943ZM5.10943 13.3501H7.24266V12.1501H5.10943V13.3501Z" fill="#DCC631"/>
</svg>
