<svg width="12" height="12" viewBox="0 0 12 12" fill="none" xmlns="http://www.w3.org/2000/svg">
<path d="M5.63456 2.20557C5.75031 1.94589 5.80819 1.81604 5.88878 1.77605C5.95879 1.74132 6.04102 1.74132 6.11102 1.77605C6.19162 1.81604 6.24949 1.94589 6.36525 2.20558L7.28727 4.27404C7.32149 4.35081 7.3386 4.3892 7.36508 4.41859C7.38851 4.4446 7.41713 4.4654 7.44911 4.47965C7.48525 4.49574 7.52704 4.50016 7.61063 4.50898L9.86278 4.74668C10.1455 4.77652 10.2869 4.79144 10.3498 4.85573C10.4045 4.91158 10.4299 4.98978 10.4185 5.0671C10.4054 5.1561 10.2998 5.25127 10.0886 5.44161L8.40627 6.95769C8.34383 7.01396 8.31261 7.0421 8.29284 7.07636C8.27534 7.10668 8.2644 7.14034 8.26074 7.17515C8.2566 7.21449 8.26532 7.25561 8.28275 7.33783L8.75264 9.5532C8.81163 9.83133 8.84113 9.9704 8.79943 10.0501C8.76321 10.1194 8.69669 10.1677 8.61964 10.1808C8.53093 10.1958 8.40778 10.1247 8.16149 9.98269L6.19975 8.85122C6.12694 8.80922 6.09054 8.78823 6.05184 8.78001C6.0176 8.77274 5.98221 8.77274 5.94797 8.78001C5.90927 8.78823 5.87286 8.80922 5.80005 8.85122L3.83831 9.98269C3.59202 10.1247 3.46888 10.1958 3.38017 10.1808C3.30312 10.1677 3.23659 10.1194 3.20038 10.0501C3.15868 9.9704 3.18818 9.83133 3.24717 9.5532L3.71705 7.33783C3.73449 7.25561 3.74321 7.21449 3.73907 7.17515C3.7354 7.14034 3.72447 7.10668 3.70697 7.07636C3.6872 7.0421 3.65598 7.01396 3.59354 6.95769L1.91123 5.44161C1.70002 5.25127 1.59442 5.1561 1.58129 5.0671C1.56989 4.98978 1.5953 4.91158 1.64997 4.85573C1.7129 4.79144 1.85428 4.77652 2.13703 4.74668L4.38917 4.50898C4.47276 4.50016 4.51456 4.49574 4.5507 4.47965C4.58267 4.4654 4.6113 4.4446 4.63473 4.41859C4.66121 4.3892 4.67832 4.35081 4.71254 4.27404L5.63456 2.20557Z" fill="#DCC631" stroke="#DCC631" stroke-width="0.8" stroke-linecap="round" stroke-linejoin="round"/>
</svg>
