<svg width="18" height="19" viewBox="0 0 18 19" fill="none" xmlns="http://www.w3.org/2000/svg">
<path d="M3 5H15M12 5L11.797 4.39105C11.6003 3.80094 11.502 3.50588 11.3195 3.28774C11.1584 3.0951 10.9516 2.94599 10.7179 2.85408C10.4532 2.75 10.1422 2.75 9.52018 2.75H8.47982C7.85779 2.75 7.54677 2.75 7.28213 2.85408C7.04844 2.94599 6.84156 3.0951 6.68047 3.28774C6.49804 3.50588 6.39969 3.80094 6.20298 4.39105L6 5M13.5 5V12.65C13.5 13.9101 13.5 14.5402 13.2548 15.0215C13.039 15.4448 12.6948 15.789 12.2715 16.0048C11.7902 16.25 11.1601 16.25 9.9 16.25H8.1C6.83988 16.25 6.20982 16.25 5.72852 16.0048C5.30516 15.789 4.96095 15.4448 4.74524 15.0215C4.5 14.5402 4.5 13.9101 4.5 12.65V5M10.5 8V13.25M7.5 8V13.25" stroke="#121212" stroke-width="1.2" stroke-linecap="round" stroke-linejoin="round"/>
</svg>
