<svg width="40" height="26" viewBox="0 0 40 26" fill="none" xmlns="http://www.w3.org/2000/svg">
<g clip-path="url(#clip0_4444_6361)">
<path d="M13.75 8.83333H11.6667M13.75 17.1667H11.6667M13.75 13H10.625M14.7917 5.2037C16.2814 4.20653 18.0728 3.625 20 3.625C25.1777 3.625 29.375 7.82233 29.375 13C29.375 18.1777 25.1777 22.375 20 22.375C18.0728 22.375 16.2814 21.7935 14.7917 20.7963M22.0833 10.3957C21.5625 10.2666 20.7136 10.2618 20 10.2666M20 10.2666C19.7614 10.2681 19.9056 10.258 19.5833 10.2666C18.7423 10.2928 17.9184 10.6423 17.9167 11.6327C17.9148 12.6878 18.9583 12.9999 20 12.9999C21.0417 12.9999 22.0833 13.2407 22.0833 14.3671C22.0833 15.2135 21.2422 15.5844 20.1939 15.7072C20.1266 15.7072 20.0622 15.7074 20 15.7077M20 10.2666L20 8.83333M20 15.7077C19.2915 15.7106 18.8743 15.7238 17.9167 15.6041M20 15.7077L20 17.1667" stroke="#121212" stroke-width="1.6" stroke-linecap="round" stroke-linejoin="round"/>
</g>
<defs>
<clipPath id="clip0_4444_6361">
<rect y="0.5" width="40" height="25" rx="1" fill="white"/>
</clipPath>
</defs>
</svg>
