<svg width="40" height="26" viewBox="0 0 40 26" fill="none" xmlns="http://www.w3.org/2000/svg">
<path fill-rule="evenodd" clip-rule="evenodd" d="M10.7684 17.916H7.57225L5.17549 9.38184C5.06173 8.98927 4.82018 8.64221 4.46487 8.47864C3.57817 8.06758 2.60108 7.74043 1.53516 7.57544V7.24687H6.68398C7.39459 7.24687 7.92755 7.74043 8.01638 8.31365L9.25995 14.4696L12.4546 7.24687H15.562L10.7684 17.916ZM17.3412 17.916H14.3226L16.8082 7.24687H19.8268L17.3412 17.916ZM23.7275 10.2013C23.8163 9.62668 24.3493 9.29811 24.971 9.29811C25.9481 9.21562 27.0125 9.38061 27.9008 9.79025L28.4337 7.49313C27.5455 7.16457 26.5684 6.99957 25.6817 6.99957C22.7519 6.99957 20.6201 8.47741 20.6201 10.5285C20.6201 12.0888 22.1302 12.9081 23.1961 13.4016C24.3493 13.8938 24.7934 14.2223 24.7046 14.7145C24.7046 15.4527 23.8163 15.7813 22.9296 15.7813C21.8637 15.7813 20.7978 15.5352 19.8222 15.1241L19.2893 17.4227C20.3552 17.8323 21.5084 17.9973 22.5743 17.9973C25.8593 18.0784 27.9008 16.602 27.9008 14.3859C27.9008 11.5952 23.7275 11.4317 23.7275 10.2013ZM38.4638 17.916L36.067 7.24687H33.4926C32.9596 7.24687 32.4267 7.57544 32.249 8.06758L27.8108 17.916H30.9182L31.5384 16.3571H35.3564L35.7117 17.916H38.4638ZM33.9384 10.1192L34.8251 14.1402H32.3395L33.9384 10.1192Z" fill="#172B85"/>
</svg>
