<svg width="181" height="80" viewBox="0 0 181 80" fill="none" xmlns="http://www.w3.org/2000/svg">
<circle cx="110.5" cy="-9.5" r="110.5" fill="#00DBBA"/>
<g clip-path="url(#clip0_179_184569)">
<path d="M126.763 11.8627C129.049 11.6097 131.484 12.7217 132.623 14.7459C133.245 15.8519 133.568 17.1863 133.997 18.3801C134.419 19.5521 134.926 20.7182 135.275 21.9125L137.379 22.1466C140.599 22.7982 143.291 25.6923 143.651 28.9685C143.73 29.6848 143.687 30.4451 143.688 31.1666L143.685 34.5766C143.684 34.8161 143.619 35.3212 143.737 35.4986C146.17 36.3737 146.87 39.1335 146.875 41.4428L146.878 46.6679C146.877 47.2505 146.912 47.8627 146.809 48.4377C146.3 51.2534 143.781 52.4066 143.73 52.5534C143.698 52.6449 143.713 52.8607 143.709 52.9633L143.696 57.5128C143.695 58.2646 143.745 59.0654 143.649 59.8115C143.086 64.162 139.506 66.5647 135.357 66.5726L96.0514 66.573L84.8178 66.5758C80.6871 66.574 77.2956 64.7425 76.0772 60.4927C75.699 59.1736 75.7995 57.8021 75.8 56.4437L75.8008 33.4633C75.8004 31.983 75.7157 30.4427 75.8639 28.9718C76.2056 25.5811 78.9265 23.1408 82.089 22.2636C82.1392 22.1637 82.13 22.1968 82.1536 22.1036C83.0387 18.6127 85.4635 18.0883 88.5088 17.7257L124.401 12.2511C125.191 12.1254 125.965 11.9472 126.763 11.8627Z" fill="#33E2C8"/>
<path d="M127.739 39.7849C130.939 39.3243 133.137 42.1172 132.67 45.2181L132.658 45.2909C132.343 47.3315 130.776 48.5054 128.786 48.7966C122.528 49.3011 121.925 40.4268 127.739 39.7849Z" fill="#00DBBA"/>
<path d="M127.968 42.4962C130.295 42.2974 130.784 45.5055 128.358 45.9678C125.706 45.9118 125.689 42.7771 127.968 42.4962Z" fill="#33E2C8"/>
<path d="M84.2098 25.8254L135.905 25.841C137.552 25.9421 139.075 27.2158 139.55 28.776L139.577 28.8678C139.852 29.7743 139.725 30.9337 139.723 31.8805L139.706 35.8204C138.709 35.9088 137.657 35.8436 136.655 35.8455L130.61 35.8481C129.065 35.8479 127.499 35.7489 125.996 36.1708C119.861 37.8928 117.819 45.7653 122.291 50.2162C124.786 52.699 126.98 52.8478 130.159 52.8499L133.84 52.8497L139.723 52.8804L139.722 58.403C139.714 60.8227 138.372 62.4919 135.812 62.6199L85.1415 62.638C82.3812 62.6345 79.9482 61.9277 79.736 58.553C79.648 57.1528 79.7148 55.704 79.7135 54.2994L79.7079 29.8669C79.7958 27.3813 81.8962 25.98 84.2098 25.8254Z" fill="#00DBBA"/>
</g>
<defs>
<clipPath id="clip0_179_184569">
<rect width="72" height="56.1039" fill="white" transform="translate(75.5 10.9492)"/>
</clipPath>
</defs>
</svg>
